<svg xmlns="http://www.w3.org/2000/svg" xmlns:xlink="http://www.w3.org/1999/xlink" viewBox="0 0 3710 3710"><defs><style>.cls-1,.cls-4,.cls-60,.cls-7{fill:#fff;}.cls-2{fill:url(#linear-gradient);}.cls-3{fill:#91b3fa;}.cls-4{opacity:0.5;}.cls-5{fill:url(#linear-gradient-2);}.cls-6{fill:url(#linear-gradient-3);}.cls-7{opacity:0.75;}.cls-8{fill:url(#Sky);}.cls-9{fill:url(#Sky-2);}.cls-10{fill:url(#Sky-3);}.cls-11{fill:url(#Sky-4);}.cls-12{fill:url(#Sky-5);}.cls-13{fill:url(#Sky-6);}.cls-14{fill:url(#Sky-7);}.cls-15{fill:url(#Sky-8);}.cls-16{fill:url(#Sky-9);}.cls-17{fill:url(#Sky-10);}.cls-18{fill:url(#linear-gradient-4);}.cls-19{fill:url(#linear-gradient-5);}.cls-20{fill:url(#linear-gradient-6);}.cls-21{fill:url(#linear-gradient-7);}.cls-22{fill:url(#linear-gradient-8);}.cls-23{fill:url(#linear-gradient-9);}.cls-24{fill:url(#linear-gradient-10);}.cls-25{fill:url(#linear-gradient-11);}.cls-26{fill:url(#linear-gradient-12);}.cls-27{fill:url(#linear-gradient-13);}.cls-28{fill:url(#linear-gradient-14);}.cls-29{fill:url(#linear-gradient-15);}.cls-30{fill:url(#linear-gradient-16);}.cls-31{fill:url(#linear-gradient-17);}.cls-32{fill:url(#linear-gradient-18);}.cls-33{fill:url(#linear-gradient-19);}.cls-34{fill:url(#linear-gradient-20);}.cls-35{fill:url(#linear-gradient-21);}.cls-36{fill:url(#linear-gradient-22);}.cls-37{fill:url(#linear-gradient-23);}.cls-38{fill:url(#linear-gradient-24);}.cls-39{fill:url(#linear-gradient-25);}.cls-40{fill:url(#linear-gradient-26);}.cls-41{fill:url(#linear-gradient-27);}.cls-42{fill:url(#linear-gradient-28);}.cls-43{fill:url(#linear-gradient-29);}.cls-44{fill:url(#linear-gradient-30);}.cls-45{fill:url(#linear-gradient-31);}.cls-46{fill:url(#linear-gradient-32);}.cls-47{fill:url(#linear-gradient-33);}.cls-48{fill:url(#linear-gradient-34);}.cls-49{fill:url(#linear-gradient-35);}.cls-50{fill:url(#linear-gradient-36);}.cls-51{fill:url(#linear-gradient-37);}.cls-52{fill:url(#linear-gradient-38);}.cls-53{fill:#69b42d;opacity:0.33;}.cls-54{fill:url(#linear-gradient-39);}.cls-55{fill:url(#linear-gradient-40);}.cls-56{fill:#f1844a;}.cls-57{fill:#ec6a33;}.cls-58{fill:url(#linear-gradient-41);}.cls-59{fill:#bdd0fb;}.cls-60{opacity:0.78;}.cls-61{fill:url(#linear-gradient-42);}.cls-62{fill:url(#linear-gradient-43);}.cls-63{fill:url(#linear-gradient-44);}.cls-64{fill:url(#linear-gradient-45);}.cls-65{fill:url(#linear-gradient-46);}.cls-66{fill:url(#linear-gradient-47);}.cls-67{fill:url(#linear-gradient-48);}.cls-68{fill:url(#linear-gradient-49);}.cls-69{fill:url(#linear-gradient-50);}.cls-70{fill:url(#linear-gradient-51);}.cls-71{fill:url(#linear-gradient-52);}.cls-72{fill:url(#linear-gradient-53);}.cls-73{fill:url(#linear-gradient-54);}.cls-74{fill:url(#linear-gradient-55);}</style><linearGradient id="linear-gradient" x1="3396.66" y1="3591.95" x2="1368.27" y2="1402.57" gradientUnits="userSpaceOnUse"><stop offset="0" stop-color="#dae3fe"/><stop offset="1" stop-color="#e9effd"/></linearGradient><linearGradient id="linear-gradient-2" x1="2733.73" y1="367.22" x2="343.89" y2="3708.18" gradientUnits="userSpaceOnUse"><stop offset="0" stop-color="#4f52ff"/><stop offset="1" stop-color="#4042e2"/></linearGradient><linearGradient id="linear-gradient-3" x1="-6414.69" y1="-206.31" x2="-7051.31" y2="1571.28" gradientTransform="matrix(-0.71, -0.71, -0.71, 0.71, -1893.84, -4524.07)" gradientUnits="userSpaceOnUse"><stop offset="0" stop-color="#ff928e"/><stop offset="1" stop-color="#fe7062"/></linearGradient><linearGradient id="Sky" x1="-7231.12" y1="758.83" x2="-6928.89" y2="2273.05" gradientTransform="matrix(-1, 0, 0, 1, -5138.77, -50.96)" gradientUnits="userSpaceOnUse"><stop offset="0" stop-color="#cce0f4"/><stop offset="0.06" stop-color="#c3dcf2"/><stop offset="0.17" stop-color="#a9d2ee"/><stop offset="0.31" stop-color="#80c2e7"/><stop offset="0.46" stop-color="#47acde"/><stop offset="0.57" stop-color="#1e9cd7"/><stop offset="0.87" stop-color="#0075be"/><stop offset="0.99" stop-color="#005b97"/></linearGradient><linearGradient id="Sky-2" x1="-7171.06" y1="746.84" x2="-6868.82" y2="2261.06" xlink:href="#Sky"/><linearGradient id="Sky-3" x1="-7276.93" y1="767.97" x2="-6974.69" y2="2282.19" gradientTransform="matrix(-1, 0, 0, 1, -5106, 0)" xlink:href="#Sky"/><linearGradient id="Sky-4" x1="-7355.81" y1="783.72" x2="-7053.58" y2="2297.93" gradientTransform="matrix(-0.76, -0.65, -0.65, 0.76, -2405.27, -4356.31)" xlink:href="#Sky"/><linearGradient id="Sky-5" x1="-7407.28" y1="793.99" x2="-7105.05" y2="2308.21" xlink:href="#Sky"/><linearGradient id="Sky-6" x1="-7453.77" y1="803.27" x2="-7151.54" y2="2317.48" gradientTransform="matrix(-1, 0, 0, 1, -5106, 0)" xlink:href="#Sky"/><linearGradient id="Sky-7" x1="-6994.77" y1="711.66" x2="-6692.53" y2="2225.87" gradientTransform="matrix(-1, 0, 0, 1, -5106, 0)" xlink:href="#Sky"/><linearGradient id="Sky-8" x1="-7025.11" y1="717.71" x2="-6722.88" y2="2231.92" gradientTransform="matrix(-0.56, -0.83, -0.83, 0.56, -840.64, -5066.12)" xlink:href="#Sky"/><linearGradient id="Sky-9" x1="-7056.4" y1="723.96" x2="-6754.17" y2="2238.17" xlink:href="#Sky"/><linearGradient id="Sky-10" x1="-7110.16" y1="734.69" x2="-6807.92" y2="2248.9" gradientTransform="matrix(-1, 0, 0, 1, -5106, 0)" xlink:href="#Sky"/><linearGradient id="linear-gradient-4" x1="-6443.05" y1="-124.44" x2="-7079.68" y2="1653.16" gradientTransform="matrix(-1, 0, 0, 1, -5138.77, -50.96)" xlink:href="#linear-gradient-3"/><linearGradient id="linear-gradient-5" x1="-1992.86" y1="679.11" x2="-1882.16" y2="1233.71" gradientTransform="matrix(0, -1, -1, 0, 2208.96, -682.33)" xlink:href="#linear-gradient-3"/><linearGradient id="linear-gradient-6" x1="-1970.85" y1="674.72" x2="-1860.16" y2="1229.32" gradientTransform="matrix(0, -1, -1, 0, 2120.19, -794.42)" xlink:href="#linear-gradient-3"/><linearGradient id="linear-gradient-7" x1="-2009.45" y1="940.29" x2="-1898.75" y2="1494.9" gradientTransform="matrix(-0.97, -0.23, -0.19, 0.8, -442.98, -236.63)" xlink:href="#linear-gradient-3"/><linearGradient id="linear-gradient-8" x1="-2030.08" y1="692.9" x2="-1919.38" y2="1247.52" gradientTransform="matrix(-0.76, -0.65, -0.65, 0.76, 372.98, -828.7)" xlink:href="#linear-gradient-3"/><linearGradient id="linear-gradient-9" x1="-1258.5" y1="584.27" x2="-1147.8" y2="1138.9" gradientTransform="matrix(0, -0.81, -1.1, 0, 2226.08, 259.88)" xlink:href="#linear-gradient-3"/><linearGradient id="linear-gradient-10" x1="-2074.41" y1="695.39" x2="-1963.71" y2="1249.98" gradientTransform="matrix(-0.97, -0.23, -0.23, 0.97, -453.83, -190.96)" xlink:href="#linear-gradient-3"/><linearGradient id="linear-gradient-11" x1="-1905.86" y1="922.91" x2="-1795.18" y2="1477.46" gradientTransform="matrix(-0.97, -0.23, -0.19, 0.79, -442.7, -236.96)" xlink:href="#linear-gradient-3"/><linearGradient id="linear-gradient-12" x1="-1928.73" y1="671.16" x2="-1818.04" y2="1225.72" gradientTransform="matrix(-0.56, -0.83, -0.83, 0.56, 897.66, -927.75)" xlink:href="#linear-gradient-3"/><linearGradient id="linear-gradient-13" x1="-1381.56" y1="614.93" x2="-1270.86" y2="1169.52" gradientTransform="matrix(0, -0.86, -1.04, 0, 2130.48, 72.98)" xlink:href="#linear-gradient-3"/><linearGradient id="linear-gradient-14" x1="-1948.56" y1="670.26" x2="-1837.86" y2="1224.87" gradientTransform="matrix(-0.97, -0.23, -0.23, 0.97, -453.83, -190.96)" xlink:href="#linear-gradient-3"/><linearGradient id="linear-gradient-15" x1="-3220.46" y1="1103.66" x2="-3301.34" y2="1508.88" gradientTransform="matrix(0.97, 0.23, -0.23, 0.97, 4517.77, 972.42)" gradientUnits="userSpaceOnUse"><stop offset="0" stop-color="#febbba"/><stop offset="1" stop-color="#ff928e"/></linearGradient><linearGradient id="linear-gradient-16" x1="3758.04" y1="1061.11" x2="3677.22" y2="1466" gradientTransform="matrix(-0.97, -0.23, -0.23, 0.97, 5109.76, 1110.47)" xlink:href="#linear-gradient-15"/><linearGradient id="linear-gradient-17" x1="-510.93" y1="1930" x2="-393.89" y2="2516.37" gradientTransform="matrix(0, -1, -1, 0, 4490.99, 2115.95)" xlink:href="#linear-gradient-3"/><linearGradient id="linear-gradient-18" x1="-487.67" y1="1925.35" x2="-370.63" y2="2511.72" gradientTransform="matrix(0, -1, -1, 0, 4413.6, 2002.56)" xlink:href="#linear-gradient-3"/><linearGradient id="linear-gradient-19" x1="-528.78" y1="2473.37" x2="-411.74" y2="3059.78" gradientTransform="matrix(-0.93, -0.36, -0.3, 0.76, 2639.48, 215.5)" xlink:href="#linear-gradient-3"/><linearGradient id="linear-gradient-20" x1="-550.29" y1="1944.59" x2="-433.25" y2="2530.96" gradientTransform="matrix(-0.76, -0.65, -0.65, 0.76, 3347.21, 499.2)" xlink:href="#linear-gradient-3"/><linearGradient id="linear-gradient-21" x1="567.98" y1="1722.73" x2="685.01" y2="2309.04" gradientTransform="matrix(0, -0.81, -1.1, 0, 4511.2, 3064.31)" xlink:href="#linear-gradient-3"/><linearGradient id="linear-gradient-22" x1="-597.15" y1="1947.21" x2="-480.11" y2="2533.57" gradientTransform="matrix(-0.93, -0.36, -0.36, 0.93, 2622.36, 259.65)" xlink:href="#linear-gradient-3"/><linearGradient id="linear-gradient-23" x1="-419.08" y1="2458.66" x2="-302.04" y2="3045.04" gradientTransform="matrix(-0.93, -0.36, -0.3, 0.76, 2639.9, 215.26)" xlink:href="#linear-gradient-3"/><linearGradient id="linear-gradient-24" x1="-443.13" y1="1921.57" x2="-326.09" y2="2507.93" gradientTransform="matrix(-0.56, -0.83, -0.83, 0.56, 3801.01, 908.78)" xlink:href="#linear-gradient-3"/><linearGradient id="linear-gradient-25" x1="343.56" y1="1811.71" x2="460.6" y2="2398.09" gradientTransform="matrix(0, -0.86, -1.04, 0, 4414.65, 2865.89)" xlink:href="#linear-gradient-3"/><linearGradient id="linear-gradient-26" x1="-464.09" y1="1920.64" x2="-347.05" y2="2507.02" gradientTransform="matrix(-0.93, -0.36, -0.36, 0.93, 2622.36, 259.65)" xlink:href="#linear-gradient-3"/><linearGradient id="linear-gradient-27" x1="-4708.76" y1="2379.05" x2="-4794.28" y2="2807.48" gradientTransform="translate(7380.14 2113.71) rotate(21.29)" xlink:href="#linear-gradient-15"/><linearGradient id="linear-gradient-28" x1="5241.92" y1="2333.74" x2="5156.48" y2="2761.83" gradientTransform="matrix(-0.93, -0.36, -0.36, 0.93, 7946.24, 2334.13)" xlink:href="#linear-gradient-15"/><linearGradient id="linear-gradient-29" x1="-5312.2" y1="2222.12" x2="-5199.68" y2="2785.87" gradientTransform="matrix(-1, 0, 0, 1, -3460.25, -1853.55)" gradientUnits="userSpaceOnUse"><stop offset="0" stop-color="#09005d"/><stop offset="1" stop-color="#1a0f91"/></linearGradient><linearGradient id="linear-gradient-30" x1="-5289.84" y1="2217.66" x2="-5177.32" y2="2781.4" gradientTransform="matrix(-1, 0, 0, 1, -3538.86, -1823.25)" xlink:href="#linear-gradient-29"/><linearGradient id="linear-gradient-31" x1="-5329.26" y1="2225.53" x2="-5216.74" y2="2789.27" gradientTransform="matrix(-0.74, 0.67, 0.67, 0.74, -3826.97, 2336.99)" xlink:href="#linear-gradient-29"/><linearGradient id="linear-gradient-32" x1="-5358.62" y1="2231.4" x2="-5246.1" y2="2795.13" gradientTransform="matrix(-0.76, -0.65, -0.65, 0.76, -630.64, -4736.74)" xlink:href="#linear-gradient-29"/><linearGradient id="linear-gradient-33" x1="-5377.78" y1="2235.24" x2="-5265.27" y2="2798.94" gradientTransform="matrix(-0.74, 0.67, 0.67, 0.74, -3826.97, 2336.99)" xlink:href="#linear-gradient-29"/><linearGradient id="linear-gradient-34" x1="-5395.09" y1="2238.66" x2="-5282.57" y2="2802.42" gradientTransform="matrix(-0.74, 0.67, 0.67, 0.74, -3826.97, 2336.99)" xlink:href="#linear-gradient-29"/><linearGradient id="linear-gradient-35" x1="-5224.21" y1="2204.55" x2="-5111.68" y2="2768.31" gradientTransform="matrix(-0.74, 0.67, 0.67, 0.74, -3826.97, 2336.99)" xlink:href="#linear-gradient-29"/><linearGradient id="linear-gradient-36" x1="-5235.51" y1="2206.8" x2="-5122.98" y2="2770.57" gradientTransform="matrix(-0.83, 0.56, 0.56, 0.83, -4008.23, 1512.6)" xlink:href="#linear-gradient-29"/><linearGradient id="linear-gradient-37" x1="-5247.15" y1="2209.17" x2="-5134.63" y2="2772.86" gradientTransform="matrix(-1, 0, 0, 1, -3461.46, -1804.84)" xlink:href="#linear-gradient-29"/><linearGradient id="linear-gradient-38" x1="-5267.16" y1="2213.14" x2="-5154.64" y2="2776.88" gradientTransform="matrix(-0.74, 0.67, 0.67, 0.74, -3826.97, 2336.99)" xlink:href="#linear-gradient-29"/><linearGradient id="linear-gradient-39" x1="-513.49" y1="2517.07" x2="-364.1" y2="2517.07" gradientTransform="matrix(0.08, -1, 1, 0.08, -697.18, 86.09)" xlink:href="#linear-gradient-29"/><linearGradient id="linear-gradient-40" x1="-341.9" y1="2438.99" x2="-322.36" y2="2438.99" gradientTransform="matrix(0.08, -1, 1, 0.08, -697.18, 86.09)" xlink:href="#linear-gradient-29"/><linearGradient id="linear-gradient-41" x1="3207.92" y1="3859.22" x2="3050.09" y2="4192.02" gradientTransform="translate(-2215.39 2016.31) rotate(-61.41)" xlink:href="#linear-gradient-29"/><linearGradient id="linear-gradient-42" x1="4259.89" y1="1828.99" x2="4463.64" y2="1828.99" gradientTransform="translate(-1922.22 1216.74) rotate(-25.36)" xlink:href="#linear-gradient-29"/><linearGradient id="linear-gradient-43" x1="4061.83" y1="1828.98" x2="4265.58" y2="1828.98" gradientTransform="translate(-1922.22 1216.74) rotate(-25.36)" xlink:href="#linear-gradient-29"/><linearGradient id="linear-gradient-44" x1="-3798.19" y1="3452.25" x2="-3685.67" y2="4015.99" gradientTransform="matrix(-1, 0, 0, 1, -2306.91, -1491.36)" xlink:href="#linear-gradient-29"/><linearGradient id="linear-gradient-45" x1="-3775.83" y1="3447.78" x2="-3663.31" y2="4011.53" gradientTransform="matrix(-1, 0, 0, 1, -2393.66, -1452.94)" xlink:href="#linear-gradient-29"/><linearGradient id="linear-gradient-46" x1="-3815.25" y1="3455.65" x2="-3702.73" y2="4019.39" gradientTransform="matrix(-0.67, 0.74, 0.74, 0.67, -3897.86, 2524.37)" xlink:href="#linear-gradient-29"/><linearGradient id="linear-gradient-47" x1="-3844.61" y1="3461.52" x2="-3732.09" y2="4025.25" gradientTransform="matrix(-0.76, -0.65, -0.65, 0.76, 948.12, -3087.75)" xlink:href="#linear-gradient-29"/><linearGradient id="linear-gradient-48" x1="-3863.77" y1="3465.37" x2="-3751.26" y2="4029.06" gradientTransform="matrix(-0.67, 0.74, 0.74, 0.67, -3897.86, 2524.37)" xlink:href="#linear-gradient-29"/><linearGradient id="linear-gradient-49" x1="-3881.08" y1="3468.79" x2="-3768.56" y2="4032.54" gradientTransform="matrix(-0.67, 0.74, 0.74, 0.67, -3897.86, 2524.37)" xlink:href="#linear-gradient-29"/><linearGradient id="linear-gradient-50" x1="-3710.2" y1="3434.68" x2="-3597.68" y2="3998.44" gradientTransform="matrix(-0.67, 0.74, 0.74, 0.67, -3897.86, 2524.37)" xlink:href="#linear-gradient-29"/><linearGradient id="linear-gradient-51" x1="-3721.5" y1="3436.92" x2="-3608.97" y2="4000.69" gradientTransform="matrix(-0.83, 0.56, 0.56, 0.83, -3796.83, 1250.82)" xlink:href="#linear-gradient-29"/><linearGradient id="linear-gradient-52" x1="-3733.14" y1="3439.29" x2="-3620.63" y2="4002.99" gradientTransform="matrix(-1, 0, 0, 1, -2305.58, -1436.51)" xlink:href="#linear-gradient-29"/><linearGradient id="linear-gradient-53" x1="-3753.15" y1="3443.26" x2="-3640.63" y2="4007" gradientTransform="matrix(-0.67, 0.74, 0.74, 0.67, -3897.86, 2524.37)" xlink:href="#linear-gradient-29"/><linearGradient id="linear-gradient-54" x1="-2459.14" y1="2376.17" x2="-2309.74" y2="2376.17" gradientTransform="translate(-1004.24 -23.01) rotate(-91.1)" xlink:href="#linear-gradient-29"/><linearGradient id="linear-gradient-55" x1="-2287.55" y1="2298.09" x2="-2268" y2="2298.09" gradientTransform="translate(-1004.24 -23.01) rotate(-91.1)" xlink:href="#linear-gradient-29"/></defs><title>Icon[Converted]</title><g id="Background"><rect class="cls-1" width="3710" height="3710"/></g><g id="Illustration"><path class="cls-2" d="M3114,2344.31c-278.72,651.46-1014.44,931.28-1590.89,883.57-157.39-13-474.07-39.24-721.33-273.07C326.91,2505.76,400,1567.1,854.62,1014.47c58.54-71.17,463.74-548,1095.17-541.6,462.31,4.68,786.79,265.82,826.25,298.36,49.84,41.1,159.78,138.76,258.85,293.7C3267.69,1429,3288.16,1937.21,3114,2344.31Z" transform="translate(-32.77 -50.96)"/><path class="cls-3" d="M3219,1909.11c3.91-5.92,13.73-2.88,13,4-12.53,110.08-30.57,534.12-427.9,835.45-363.54,275.7-588.16,420.17-836.4,437.32-24.56,1.69-48-7.53-45.58-30.52,14.23-136.25,75.6-515.87,324.84-675.3C2544.71,2289.55,3032.28,2191.24,3219,1909.11Z" transform="translate(-32.77 -50.96)"/><path class="cls-4" d="M3013.83,2232.89S2869.1,2591.57,1963.9,3157.25C1963.9,3157.25,2841.16,2544.07,3013.83,2232.89Z" transform="translate(-32.77 -50.96)"/><path class="cls-5" d="M836.4,885a78.81,78.81,0,0,1,60.92-21c239.32,21.53,685.8-93.75,977.61-392.32,20.27-20.73,57.2-9,80.43,8.34,324.53,242.55,862.47,292.78,1049.22,303.05a78.79,78.79,0,0,1,74,70.58C3248.37,2494,2180.41,3088.33,1958.91,3193.24a79,79,0,0,1-75.46-4.36C779.52,2501.26,826.75,1607,811.48,944.45A78.86,78.86,0,0,1,836.4,885Z" transform="translate(-32.77 -50.96)"/><path class="cls-3" d="M1929.05,3070.35a22.53,22.53,0,0,1-12.14-3.53c-422.5-270.09-697.85-592.91-841.78-986.92-128.58-352-134.89-710.75-140.45-1027.24q-.36-21.27-.75-42.25a22.09,22.09,0,0,1,6.38-16,22.39,22.39,0,0,1,16.11-6.73h0c262.8,0,657.25-116,946.52-375.24a22.42,22.42,0,0,1,27.34-2c317.73,210.83,770.68,272.2,1012.4,290a22.31,22.31,0,0,1,20.64,20.4c56,639.06-76.86,1179.39-394.93,1606-237.52,318.54-519.11,484.49-629.16,541.05h0A22.31,22.31,0,0,1,1929.05,3070.35ZM956.64,990.9a19.34,19.34,0,0,0-14,5.76,19,19,0,0,0-5.45,13.69q.39,21,.76,42.23c5.55,316.26,11.85,674.69,140.25,1026.2,143.67,393.32,418.59,715.61,840.48,985.3a19.19,19.19,0,0,0,19.09.93h0c109.85-56.45,390.94-222.1,628.05-540.1C2883.38,2099,3016,1559.39,2960.1,921.15a19.08,19.08,0,0,0-17.65-17.45c-242-17.84-695.61-79.31-1014-290.55a19.15,19.15,0,0,0-23.37,1.69c-132.63,118.85-299.8,217.31-483.44,284.74-160.37,58.89-325.52,91.32-465,91.32Z" transform="translate(-32.77 -50.96)"/><circle class="cls-1" cx="1961.11" cy="1615.38" r="578.03" transform="translate(-600.62 1808.89) rotate(-45)"/><circle class="cls-6" cx="1961.11" cy="1615.38" r="558.81" transform="translate(-600.62 1808.89) rotate(-45)"/><path class="cls-7" d="M2476.23,1593.91h.32a5.92,5.92,0,0,0,5.58-6.21,526,526,0,0,0-7.58-65.53,5.9,5.9,0,1,0-11.62,2.1,513.7,513.7,0,0,1,7.41,64A5.9,5.9,0,0,0,2476.23,1593.91Z" transform="translate(-32.77 -50.96)"/><path class="cls-7" d="M2421.9,1389.16a5.75,5.75,0,0,0,2.65-.64,5.89,5.89,0,0,0,2.61-7.93c-89.34-177-267.92-286.95-466-286.95a526.56,526.56,0,0,0-94.12,8.47,5.9,5.9,0,1,0,2.12,11.61,515,515,0,0,1,92-8.27c193.65,0,368.19,107.47,455.51,280.46A5.91,5.91,0,0,0,2421.9,1389.16Z" transform="translate(-32.77 -50.96)"/><circle class="cls-1" cx="1948.93" cy="1627.56" r="472.96" transform="translate(-612.79 1803.84) rotate(-45)"/><ellipse class="cls-8" cx="1905.74" cy="1642.81" rx="176.09" ry="308.72"/><ellipse class="cls-9" cx="1905.98" cy="1328.72" rx="96.46" ry="81.45"/><path class="cls-10" d="M2204.41,1040.31l-4.47,1.49-5.36,1.8c-2.11.71-4.55,1.46-7.22,2.56l-8.91,3.48c-3.27,1.23-6.61,2.93-10.3,4.54-1.82.84-3.73,1.67-5.65,2.6l-5.86,3-6.18,3.17-6.31,3.62-6.57,3.81-6.65,4.25c-4.57,2.8-9,6.09-13.68,9.37s-9.17,7-13.86,10.75c-4.49,4-9.27,7.8-13.72,12.16a329.25,329.25,0,0,0-26.53,27.74,382.55,382.55,0,0,0-24.14,31.48c-7.66,10.88-14.54,22.27-21.17,33.56s-12.41,22.83-17.61,34.14c-5,11.39-9.42,22.6-13.07,33.38-1.81,5.4-3.56,10.65-5.15,15.76s-3,10.08-4.26,14.87-2.49,9.38-3.54,13.77-2.06,8.54-2.87,12.48c-1.69,7.86-3,14.74-4,20.44s-1.65,10.17-2,13.24-.62,4.7-.62,4.7l1.49.38,1.75-4.4c1.14-2.88,2.74-7.1,4.78-12.47s4.46-11.87,7.27-19.34,6-15.84,9.5-24.94c1.71-4.57,3.62-9.28,5.58-14.15s4-9.91,6-15.06c4.36-10.25,8.87-21.06,13.8-32.11s10-22.48,15.66-33.85,11.9-22.68,18.75-33.61a367.39,367.39,0,0,1,22-31.54,320.28,320.28,0,0,1,24.55-28.06c4.14-4.43,8.62-8.36,12.82-12.41,2.16-2,4.38-3.8,6.53-5.68s4.24-3.77,6.45-5.45c4.35-3.46,8.52-6.92,12.83-9.9l6.26-4.54,6.22-4.09,6-3.9,5.89-3.45,5.6-3.29c1.84-1,3.67-1.94,5.42-2.87,7-3.8,13.27-6.62,18.43-9,2.55-1.26,5-2.18,7-3l5.23-2.14,4.36-1.79Z" transform="translate(-32.77 -50.96)"/><ellipse class="cls-11" cx="2114.6" cy="1461.14" rx="118.3" ry="27.98" transform="translate(-474.05 1682.02) rotate(-40.71)"/><ellipse class="cls-12" cx="2103.53" cy="1569.63" rx="171.6" ry="23.98"/><path class="cls-13" d="M1988.36,1826.26l36.61,1.31,36.61,1.14,36.6,1.15,36.61,1-5.62-5.62c-.48,18.17-1,36.34-1.38,54.52l-1.23,54.51c-.21,9.09-.54,18.17-.84,27.26s-.67,18.17-.88,27.26c-.11,4.54-.25,9.08-.28,13.63s-.14,9.08-.09,13.63,0,9.08.09,13.62l.28,13.63.13,6.33,5.28,2.53q13.89,6.64,27.91,13c9.37,4.23,18.73,8.48,28.21,12.47,4.74,2,9.45,4.08,14.21,6l14.31,5.84c4.82,1.86,9.6,3.78,14.44,5.6s9.68,3.61,14.59,5.28l.91-1.77c-4.22-3-8.51-5.9-12.81-8.77s-8.64-5.64-13-8.46l-13.08-8.22c-4.37-2.73-8.8-5.35-13.19-8-8.78-5.38-17.68-10.51-26.58-15.65s-17.87-10.13-26.88-15.07l5.41,8.85.28-13.63c.1-4.54.06-9.08.09-13.62s-.05-9.09-.09-13.63-.16-9.09-.27-13.63c-.22-9.09-.6-18.17-.89-27.26s-.63-18.17-.84-27.26l-1.23-54.51c-.36-18.18-.9-36.35-1.38-54.52l-.15-5.77-5.47.15-36.61,1-36.6,1.14L2025,1823l-36.61,1.31Z" transform="translate(-32.77 -50.96)"/><path class="cls-14" d="M1671.18,1039.55l4.36,1.78,5.23,2.15c2.06.85,4.46,1.77,7,3,5.16,2.43,11.45,5.25,18.43,9,1.75.93,3.58,1.84,5.42,2.86l5.6,3.29,5.89,3.46,6,3.9,6.22,4.09,6.26,4.53c4.31,3,8.48,6.45,12.83,9.9,2.21,1.69,4.29,3.59,6.45,5.46s4.36,3.72,6.53,5.67c4.2,4,8.68,8,12.81,12.41a321.62,321.62,0,0,1,24.56,28.06,373.53,373.53,0,0,1,22,31.54c6.85,10.93,13.06,22.27,18.74,33.62s10.74,22.8,15.67,33.84,9.44,21.86,13.79,32.11c2.11,5.16,4.17,10.17,6.06,15.07s3.87,9.57,5.58,14.14c3.52,9.1,6.71,17.48,9.49,24.94l7.28,19.34c2,5.37,3.64,9.6,4.78,12.47s1.74,4.41,1.74,4.41l1.5-.38s-.22-1.64-.62-4.71-1.07-7.56-2.06-13.24-2.27-12.57-4-20.43c-.81-3.94-1.8-8.1-2.87-12.49s-2.18-9-3.54-13.76-2.76-9.74-4.26-14.88-3.35-10.35-5.15-15.75c-3.65-10.79-8-22-13.07-33.38-5.2-11.32-11-22.83-17.61-34.14s-13.51-22.68-21.17-33.57a380.7,380.7,0,0,0-24.14-31.47,329.46,329.46,0,0,0-26.53-27.75c-4.45-4.35-9.23-8.2-13.72-12.15-4.69-3.72-9.2-7.46-13.86-10.75s-9.11-6.57-13.69-9.37l-6.64-4.26-6.57-3.81-6.31-3.62-6.18-3.17-5.86-3c-1.92-.93-3.83-1.75-5.65-2.59-3.69-1.62-7-3.31-10.3-4.54l-8.91-3.48c-2.67-1.1-5.11-1.85-7.22-2.57l-5.36-1.8-4.47-1.49Z" transform="translate(-32.77 -50.96)"/><ellipse class="cls-15" cx="1770.73" cy="1461.14" rx="27.98" ry="118.3" transform="translate(-461.27 2068.78) rotate(-56.2)"/><ellipse class="cls-16" cx="1737.96" cy="1573.18" rx="185.26" ry="28.63"/><path class="cls-17" d="M1887.77,1822.07l-36.61-1.3-36.61-1.15-36.61-1.14-36.6-1-5.47-.16-.15,5.78c-.48,18.17-1,36.34-1.38,54.51l-1.23,54.52c-.22,9.08-.55,18.17-.85,27.25s-.66,18.18-.88,27.26c-.11,4.55-.24,9.09-.27,13.63s-.15,9.09-.1,13.63,0,9.09.1,13.63l.28,13.63,5.4-8.85q-13.5,7.4-26.87,15.06c-8.9,5.15-17.8,10.27-26.58,15.66-4.39,2.67-8.82,5.29-13.19,8l-13.08,8.22c-4.32,2.83-8.67,5.59-13,8.46s-8.59,5.76-12.81,8.78l.91,1.77c4.91-1.67,9.76-3.47,14.59-5.29s9.62-3.73,14.44-5.59l14.31-5.84c4.76-2,9.47-4,14.2-6,9.49-4,18.85-8.23,28.22-12.46s18.65-8.62,27.91-13.05l5.28-2.53.13-6.32.28-13.63c.09-4.54.06-9.09.09-13.63s-.05-9.09-.09-13.63-.17-9.08-.28-13.63c-.21-9.08-.59-18.17-.88-27.26s-.63-18.17-.84-27.25l-1.24-54.52c-.36-18.17-.89-36.34-1.37-54.51l-5.62,5.62,36.6-1,36.61-1.14,36.61-1.15,36.61-1.3Z" transform="translate(-32.77 -50.96)"/><polygon class="cls-18" points="2187.18 1983.63 2223.55 1958.7 1665.84 1145.22 1633.14 1175.49 2187.18 1983.63"/><ellipse class="cls-19" cx="1187.35" cy="1242.13" rx="113.07" ry="64.49" transform="translate(-325.33 2064.39) rotate(-76.83)"/><ellipse class="cls-20" cx="1213.64" cy="1130.13" rx="29.83" ry="35.33" transform="translate(-195.99 2003.49) rotate(-76.83)"/><path class="cls-21" d="M1331.8,1052.21l-1.7.06-2,.08c-.8,0-1.73,0-2.75.14l-3.42.27c-1.25.09-2.56.31-4,.47-.71.09-1.44.17-2.19.28l-2.3.39-2.42.41-2.5.53-2.6.57-2.66.68c-1.82.44-3.63,1-5.52,1.6s-3.75,1.28-5.68,2-3.83,1.51-5.72,2.4a112.16,112.16,0,0,0-11.35,5.88,120.41,120.41,0,0,0-10.76,7.17c-3.47,2.54-6.7,5.29-9.84,8a100.2,100.2,0,0,0-15.55,17.13c-1,1.43-2,2.81-2.91,4.17s-1.75,2.69-2.53,4-1.53,2.53-2.2,3.72-1.32,2.32-1.88,3.4c-1.14,2.16-2.08,4-2.81,5.63s-1.28,2.83-1.63,3.69l-.55,1.32.51.24.92-1.14c.6-.74,1.46-1.84,2.56-3.24l3.91-5c1.5-2,3.21-4.12,5.09-6.49.92-1.19,1.93-2.4,3-3.66s2.09-2.56,3.19-3.88c2.25-2.63,4.6-5.41,7.11-8.22s5.1-5.72,7.9-8.57a118.4,118.4,0,0,1,9-8.24,117.08,117.08,0,0,1,10-7.36,106.77,106.77,0,0,1,10.67-6.14c1.78-.94,3.64-1.71,5.42-2.54.9-.39,1.82-.75,2.71-1.12s1.77-.74,2.68-1c1.78-.64,3.51-1.31,5.25-1.82l2.54-.8,2.5-.67,2.4-.64,2.34-.52,2.22-.49c.72-.14,1.44-.26,2.13-.38,2.74-.53,5.18-.83,7.18-1.1,1-.16,1.92-.22,2.71-.3l2-.19,1.68-.16Z" transform="translate(-32.77 -50.96)"/><ellipse class="cls-22" cx="1260.27" cy="1176.49" rx="43.33" ry="10.25" transform="translate(-434.01 665.32) rotate(-27.55)"/><ellipse class="cls-23" cx="1252.19" cy="1230.65" rx="9.64" ry="50.93" transform="translate(-264.09 2118.65) rotate(-76.83)"/><path class="cls-24" d="M1194.08,1293.53l13,3.52,13,3.47,13,3.46,13,3.42-1.54-2.47c-1.69,6.44-3.39,12.87-5,19.32l-5,19.34c-.83,3.23-1.71,6.44-2.57,9.65s-1.75,6.43-2.59,9.65c-.42,1.61-.84,3.22-1.23,4.84s-.81,3.23-1.17,4.85-.76,3.24-1.11,4.87l-1,4.88-.49,2.27,1.67,1.34q4.41,3.54,8.87,7c3,2.29,6,4.59,9,6.8,1.53,1.11,3,2.25,4.57,3.34l4.61,3.28c1.56,1.06,3.11,2.15,4.68,3.2s3.15,2.09,4.77,3.1l.47-.56c-1.26-1.43-2.54-2.81-3.84-4.19s-2.61-2.74-3.91-4.1l-4-4c-1.33-1.34-2.69-2.64-4-4-2.68-2.65-5.43-5.22-8.17-7.8s-5.53-5.1-8.33-7.61l1.19,3.6,1.24-4.83c.41-1.62.78-3.24,1.17-4.86s.74-3.24,1.1-4.86.7-3.26,1-4.89c.68-3.26,1.31-6.53,2-9.79s1.29-6.54,2-9.79l4.11-19.55c1.39-6.51,2.71-13,4.06-19.56l.43-2.07-2-.4-13.14-2.68-13.15-2.65-13.15-2.65-13.16-2.58Z" transform="translate(-32.77 -50.96)"/><path class="cls-25" d="M1141.66,1007.6l1.43.88,1.72,1.06c.68.42,1.47.89,2.3,1.47,1.67,1.13,3.72,2.48,6,4.17.56.41,1.15.83,1.74,1.28l1.77,1.43,1.87,1.49,1.87,1.64,1.94,1.71,1.92,1.84c1.34,1.22,2.59,2.58,3.91,4,.67.67,1.28,1.4,1.93,2.12s1.3,1.45,1.94,2.2c1.22,1.53,2.55,3,3.72,4.68a103.84,103.84,0,0,1,6.85,10.21,112.77,112.77,0,0,1,5.72,11,117.1,117.1,0,0,1,4.39,11.34c1.25,3.78,2.28,7.53,3.28,11.15s1.88,7.15,2.74,10.5c.4,1.67.79,3.3,1.13,4.88s.73,3.11,1,4.59c.64,2.94,1.21,5.64,1.69,8s.92,4.51,1.28,6.24.64,3.09.85,4,.33,1.43.33,1.43l.56,0s0-.5.09-1.43.14-2.28.17-4,0-3.85,0-6.27c0-1.22-.09-2.51-.18-3.88s-.16-2.8-.32-4.3-.32-3.06-.51-4.68-.49-3.29-.76-5a107.65,107.65,0,0,0-2.39-10.8,109.14,109.14,0,0,0-4-11.41c-1.6-3.83-3.27-7.72-5.26-11.53a122.15,122.15,0,0,0-6.47-11.17,114.12,114.12,0,0,0-7.57-10.29c-1.29-1.63-2.74-3.15-4.07-4.68s-2.77-2.93-4.21-4.28-2.8-2.67-4.24-3.87l-2.08-1.79-2.09-1.66-2-1.58-2-1.43-1.88-1.37c-.63-.43-1.25-.83-1.84-1.22-1.21-.78-2.29-1.55-3.37-2.19l-2.94-1.75c-.88-.54-1.69-1-2.4-1.35l-1.79-1-1.49-.81Z" transform="translate(-32.77 -50.96)"/><ellipse class="cls-26" cx="1156.34" cy="1154.64" rx="10.25" ry="43.33" transform="translate(-509.62 1048.81) rotate(-43.03)"/><ellipse class="cls-27" cx="1144.36" cy="1205.85" rx="10.95" ry="58.43" transform="translate(-323.21 1994.52) rotate(-76.83)"/><path class="cls-28" d="M1158.55,1283.65l-12.94-3.52-13-3.46-13-3.47-13-3.42-1.94-.51-.53,2c-1.69,6.44-3.4,12.87-5,19.32l-5,19.34c-.83,3.23-1.71,6.44-2.57,9.65s-1.76,6.43-2.59,9.65c-.42,1.61-.85,3.22-1.24,4.84s-.81,3.23-1.17,4.85-.76,3.24-1.1,4.87l-1,4.88,2.67-2.7q-5.45,1.51-10.84,3.13c-3.61,1.09-7.21,2.18-10.79,3.36-1.79.59-3.59,1.16-5.37,1.77l-5.35,1.84c-1.78.64-3.56,1.27-5.33,1.93s-3.54,1.34-5.3,2.06l.18.71c1.89-.18,3.76-.42,5.64-.67s3.74-.53,5.62-.79l5.59-.89c1.86-.3,3.71-.64,5.57-1,3.71-.63,7.4-1.37,11.1-2.09s7.37-1.52,11-2.33l2.09-.46.58-2.25,1.23-4.83c.42-1.62.78-3.24,1.17-4.86s.74-3.24,1.11-4.86.7-3.26,1-4.89c.68-3.26,1.3-6.53,2-9.79s1.29-6.54,2-9.79l4.11-19.55c1.39-6.51,2.71-13,4-19.56l-2.47,1.54,13.14,2.68,13.15,2.65,13.15,2.65,13.17,2.59Z" transform="translate(-32.77 -50.96)"/><path class="cls-29" d="M1212.49,1137.84c-45.47-11.24-123.55,133.89-58.93,205.22Z" transform="translate(-32.77 -50.96)"/><path class="cls-30" d="M1212.49,1137.84c45.74,10.1,50.5,174.6-39.06,209.86Z" transform="translate(-32.77 -50.96)"/><ellipse class="cls-31" cx="2198.89" cy="2554.6" rx="119.55" ry="68.19" transform="translate(-1012.51 3624.99) rotate(-68.71)"/><ellipse class="cls-32" cx="2243.13" cy="2441.3" rx="31.54" ry="37.36" transform="translate(-878.76 3594.05) rotate(-68.71)"/><path class="cls-33" d="M2378.45,2377.39l-1.79-.18-2.14-.23c-.84-.08-1.81-.21-2.9-.26l-3.61-.22c-1.32-.1-2.73-.07-4.24-.11-.76,0-1.54,0-2.34,0l-2.46.06-2.59.07-2.7.18-2.81.2-2.88.32c-2,.19-4,.53-6,.85s-4.11.78-6.23,1.22-4.25,1-6.35,1.66a117.34,117.34,0,0,0-12.77,4.46,129,129,0,0,0-12.33,5.89c-4,2.14-7.8,4.53-11.49,6.93a116,116,0,0,0-10.28,7.6,113.38,113.38,0,0,0-8.56,8c-1.27,1.34-2.51,2.65-3.67,3.93s-2.23,2.56-3.25,3.79-2,2.42-2.86,3.57-1.72,2.23-2.47,3.28c-1.51,2.08-2.78,3.92-3.78,5.47s-1.77,2.77-2.26,3.62l-.77,1.3.5.32,1.13-1.05c.74-.69,1.81-1.71,3.16-3l4.85-4.69c1.86-1.81,4-3.83,6.29-6,1.15-1.11,2.38-2.23,3.64-3.39s2.57-2.37,3.92-3.6c2.75-2.41,5.62-5,8.67-7.53s6.19-5.23,9.55-7.79a123.32,123.32,0,0,1,10.62-7.28,118.12,118.12,0,0,1,11.59-6.21,109.38,109.38,0,0,1,12.08-4.83c2-.73,4.07-1.26,6-1.86,1-.27,2-.51,3-.76s2-.52,3-.7c2-.41,3.87-.85,5.77-1.12l2.78-.46,2.71-.33,2.61-.31,2.52-.19,2.4-.18c.78-.05,1.55-.06,2.29-.09,2.95-.14,5.54-.09,7.69-.08,1.06,0,2,.06,2.87.1l2.14.1,1.78.08Z" transform="translate(-32.77 -50.96)"/><ellipse class="cls-34" cx="2285.01" cy="2496.79" rx="45.81" ry="10.84" transform="translate(-733.09 851.15) rotate(-19.43)"/><ellipse class="cls-35" cx="2268.46" cy="2552.27" rx="10.19" ry="53.84" transform="translate(-966.02 3688.33) rotate(-68.71)"/><path class="cls-36" d="M2198.25,2609.42l13,5.62,13.05,5.55,13,5.56,13.06,5.53-1.24-2.82c-2.72,6.49-5.47,13-8.16,19.47l-8.11,19.5c-1.35,3.25-2.75,6.48-4.13,9.72s-2.8,6.46-4.16,9.71c-.67,1.62-1.36,3.24-2,4.88s-1.33,3.26-1.95,4.9-1.28,3.28-1.88,4.93l-1.82,5-.84,2.3,1.55,1.66q4.08,4.35,8.23,8.63c2.79,2.84,5.57,5.69,8.43,8.46,1.43,1.39,2.84,2.8,4.28,4.18l4.34,4.12c1.48,1.34,2.93,2.71,4.42,4s3,2.67,4.53,4l.57-.51c-1.1-1.68-2.24-3.32-3.38-5s-2.33-3.25-3.49-4.88l-3.57-4.81c-1.19-1.6-2.42-3.16-3.63-4.75-2.41-3.17-4.9-6.27-7.39-9.38s-5-6.17-7.57-9.22l.7,4,2-4.88c.67-1.63,1.3-3.27,1.95-4.9s1.26-3.29,1.88-4.94,1.22-3.3,1.82-5c1.2-3.31,2.34-6.64,3.51-10s2.33-6.65,3.53-9.95l7.22-19.85c2.43-6.61,4.79-13.24,7.17-19.86l.76-2.11-2-.71-13.35-4.77-13.37-4.74-13.37-4.73-13.4-4.68Z" transform="translate(-32.77 -50.96)"/><path class="cls-37" d="M2186.09,2302.3l1.37,1.13,1.64,1.37c.65.54,1.41,1.15,2.19,1.88,1.58,1.44,3.53,3.15,5.61,5.25.52.52,1.08,1.05,1.62,1.61s1.09,1.15,1.65,1.75l1.73,1.85,1.71,2,1.78,2.07c.56.73,1.14,1.47,1.73,2.22,1.22,1.48,2.32,3.09,3.5,4.72.6.8,1.14,1.66,1.7,2.51s1.15,1.71,1.7,2.59c1.06,1.78,2.22,3.57,3.21,5.45a112,112,0,0,1,5.64,11.72,119.44,119.44,0,0,1,4.33,12.38,123,123,0,0,1,2.91,12.53c.74,4.14,1.26,8.22,1.77,12.17s.9,7.76,1.29,11.39c.17,1.81.34,3.58.46,5.28s.3,3.37.39,5c.23,3.17.42,6.09.57,8.68s.29,4.85.41,6.71.21,3.34.29,4.35.12,1.54.12,1.54l.59.1.31-1.48c.21-1,.49-2.37.78-4.18s.62-4,.91-6.57c.16-1.28.28-2.64.4-4.08s.25-3,.3-4.55.12-3.26.17-5,0-3.52,0-5.36a114,114,0,0,0-.89-11.67,117.36,117.36,0,0,0-2.44-12.52c-1.1-4.26-2.27-8.58-3.78-12.86a130.22,130.22,0,0,0-5.1-12.66,118.65,118.65,0,0,0-6.4-11.9c-1.1-1.9-2.39-3.71-3.55-5.5s-2.47-3.49-3.77-5.11-2.53-3.22-3.86-4.69l-1.91-2.18-1.94-2-1.86-2c-.63-.62-1.26-1.22-1.86-1.8l-1.77-1.71c-.59-.55-1.18-1.06-1.75-1.56-1.14-1-2.15-2-3.19-2.79l-2.82-2.27c-.83-.7-1.63-1.27-2.31-1.77l-1.73-1.29-1.44-1.07Z" transform="translate(-32.77 -50.96)"/><ellipse class="cls-38" cx="2179.49" cy="2458.4" rx="10.84" ry="45.81" transform="translate(-1047.5 1638.76) rotate(-34.91)"/><ellipse class="cls-39" cx="2159.3" cy="2510.21" rx="11.57" ry="61.77" transform="translate(-996.36 3559.83) rotate(-68.71)"/><path class="cls-40" d="M2162.54,2593.76l-13-5.62-13.05-5.56-13-5.56-13.07-5.52-1.95-.82-.87,2.06c-2.72,6.49-5.47,13-8.16,19.48l-8.11,19.5c-1.35,3.24-2.75,6.48-4.13,9.71s-2.8,6.47-4.15,9.71c-.68,1.63-1.37,3.25-2,4.88s-1.33,3.26-1.95,4.91-1.28,3.28-1.88,4.93l-1.82,5,3.2-2.44q-5.91.78-11.82,1.66c-3.93.6-7.87,1.2-11.79,1.91-2,.35-3.93.67-5.89,1l-5.87,1.13c-2,.41-3.92.8-5.87,1.23s-3.91.87-5.85,1.37l.08.76c2,.09,4,.12,6,.15s4,0,6,0l6-.1c2,0,4-.12,6-.18,4-.1,8-.32,11.93-.53s7.94-.48,11.91-.78l2.26-.17.93-2.27,2-4.87c.67-1.63,1.3-3.28,1.95-4.91s1.26-3.29,1.88-4.93,1.22-3.3,1.82-5c1.2-3.31,2.34-6.64,3.51-10s2.33-6.64,3.53-9.95l7.22-19.84c2.43-6.61,4.79-13.24,7.17-19.87l-2.82,1.24,13.36,4.77,13.37,4.74,13.37,4.73,13.39,4.68Z" transform="translate(-32.77 -50.96)"/><path class="cls-41" d="M2240.77,2449.2c-45.91-18.55-149.32,121.68-92.33,206Z" transform="translate(-32.77 -50.96)"/><path class="cls-42" d="M2240.77,2449.2c46.37,17.4,26.78,190.3-72.23,213.83Z" transform="translate(-32.77 -50.96)"/><ellipse class="cls-43" cx="1782.7" cy="716.59" rx="65.56" ry="114.94" transform="translate(-51.74 1333.08) rotate(-42.23)"/><ellipse class="cls-44" cx="1704.17" cy="629.94" rx="35.92" ry="30.33" transform="translate(-13.88 1257.81) rotate(-42.23)"/><path class="cls-45" d="M1692.5,469.9l-.86,1.53-1,1.83c-.4.73-.89,1.55-1.35,2.52l-1.58,3.19c-.6,1.15-1.09,2.46-1.7,3.82-.3.69-.62,1.4-.92,2.13s-.56,1.51-.86,2.3-.6,1.59-.91,2.42l-.83,2.58-.86,2.69-.77,2.84c-.56,1.91-1,3.93-1.42,6s-.77,4.24-1.14,6.44-.6,4.47-.74,6.78a122.53,122.53,0,0,0-.37,14.29,144.11,144.11,0,0,0,1.22,14.72c.61,4.91,1.57,9.77,2.56,14.55s2.29,9.39,3.69,13.81,3.06,8.59,4.75,12.48c.85,1.94,1.68,3.82,2.52,5.63s1.7,3.53,2.55,5.17,1.66,3.21,2.47,4.68,1.57,2.87,2.33,4.16c1.5,2.59,2.85,4.82,4,6.62s2.09,3.22,2.75,4.17l1,1.45.51-.27s-.22-.57-.62-1.65-1-2.64-1.8-4.63l-2.84-7.16c-1.1-2.75-2.31-5.86-3.62-9.25-.67-1.68-1.32-3.46-2-5.29s-1.39-3.72-2.1-5.67c-1.37-3.92-2.82-8-4.23-12.31s-2.87-8.69-4.15-13.25-2.4-9.23-3.25-14a138.54,138.54,0,0,1-1.81-14.22,119.86,119.86,0,0,1-.25-13.88c0-2.25.28-4.46.43-6.62.1-1.08.25-2.15.37-3.2s.23-2.1.42-3.12c.33-2,.62-4,1.06-5.94.2-1,.4-1.89.59-2.82s.47-1.8.69-2.68.46-1.73.68-2.57l.76-2.43q.36-1.19.72-2.31c.25-.74.52-1.45.77-2.14,1-2.8,2-5.15,2.82-7.11.39-1,.82-1.84,1.18-2.59s.66-1.38.9-1.9l.76-1.58Z" transform="translate(-32.77 -50.96)"/><ellipse class="cls-46" cx="1773.04" cy="608.39" rx="44.05" ry="10.42" transform="translate(918.6 2242.26) rotate(-82.94)"/><path class="cls-47" d="M1771.6,689.86c3.32,3.65,27.19-12.61,53.31-36.33s44.63-45.9,41.32-49.55-27.19,12.62-53.31,36.33S1768.29,686.21,1771.6,689.86Z" transform="translate(-32.77 -50.96)"/><path class="cls-48" d="M1829.59,740.64l10.42-8.8,10.38-8.84,10.38-8.85,10.35-8.87-2.95-.15c4.41,5.13,8.81,10.28,13.26,15.38l13.3,15.34c2.21,2.55,4.4,5.14,6.59,7.72s4.36,5.18,6.57,7.74c1.11,1.28,2.21,2.56,3.34,3.82s2.23,2.54,3.38,3.78,2.27,2.51,3.44,3.74l3.49,3.69,1.61,1.71,2.09-.63q5.49-1.63,11-3.38c3.64-1.18,7.28-2.35,10.9-3.63,1.81-.63,3.62-1.23,5.43-1.89l5.4-2c1.79-.69,3.59-1.36,5.38-2.07s3.57-1.42,5.35-2.19l-.2-.72c-1.91.23-3.82.5-5.72.79s-3.79.61-5.69.91l-5.67,1c-1.88.34-3.76.72-5.64,1.08-3.77.72-7.5,1.53-11.24,2.34s-7.47,1.68-11.18,2.57l3.7,1.09-3.33-3.83c-1.11-1.28-2.26-2.52-3.39-3.78s-2.28-2.49-3.43-3.74-2.32-2.46-3.49-3.68c-2.33-2.46-4.71-4.87-7.06-7.3s-4.72-4.85-7-7.3l-14-14.72c-4.65-4.92-9.35-9.8-14-14.69l-1.49-1.55-1.47,1.41-9.83,9.44-9.81,9.48-9.81,9.47-9.76,9.52Z" transform="translate(-32.77 -50.96)"/><path class="cls-49" d="M1545.3,603.11l1.65-.6,2-.72c.78-.28,1.67-.62,2.69-.92,2-.62,4.47-1.42,7.34-2.11.72-.19,1.45-.39,2.21-.57l2.37-.49,2.49-.53,2.62-.42,2.74-.43,2.86-.31c1.94-.26,4-.35,6-.49,1-.08,2.08-.08,3.14-.11s2.13-.06,3.22-.06c2.17.06,4.39,0,6.64.21a121.72,121.72,0,0,1,13.79,1.59,137.93,137.93,0,0,1,14,3.18c4.62,1.3,9.17,2.87,13.58,4.58s8.66,3.6,12.78,5.41,8.08,3.67,11.84,5.4c1.87.9,3.69,1.76,5.44,2.64s3.46,1.67,5.08,2.5c3.24,1.63,6.22,3.14,8.86,4.5l6.84,3.52,4.44,2.24,1.58.78.32-.48-1.35-1.14c-.88-.75-2.18-1.82-3.88-3.14s-3.77-2.9-6.2-4.64c-1.21-.89-2.53-1.79-3.92-2.73s-2.85-1.93-4.42-2.91-3.2-2-4.9-3-3.51-2-5.36-3.06c-3.7-2.06-7.72-4-12-5.93s-8.75-3.54-13.4-5-9.4-2.88-14.24-4a140.71,140.71,0,0,0-14.53-2.64,122.63,122.63,0,0,0-14.25-1c-2.32-.09-4.6,0-6.83.08s-4.4.25-6.51.51-4.16.47-6.12.84l-2.89.49-2.77.59-2.64.58-2.5.67-2.37.64c-.76.22-1.49.48-2.21.7-1.42.48-2.76.85-4,1.32l-3.33,1.27c-1,.37-1.87.77-2.63,1.1l-1.93.85-1.6.71Z" transform="translate(-32.77 -50.96)"/><ellipse class="cls-50" cx="1678.23" cy="694.43" rx="44.05" ry="10.42" transform="translate(-116.41 202.44) rotate(-8.43)"/><ellipse class="cls-51" cx="1719.02" cy="739.37" rx="68.97" ry="10.66" transform="translate(-83.58 1296.19) rotate(-42.23)"/><path class="cls-52" d="M1800.81,764.66l-10.42,8.8L1780,782.3l-10.37,8.84L1759.28,800l-1.54,1.32,1.4,1.63c4.42,5.13,8.81,10.28,13.26,15.38l13.3,15.34c2.22,2.56,4.4,5.14,6.59,7.72s4.36,5.18,6.58,7.74c1.1,1.28,2.2,2.56,3.33,3.82s2.24,2.55,3.39,3.79,2.27,2.5,3.43,3.73l3.49,3.69-.72-3.8q-1.87,5.43-3.64,10.88c-1.17,3.65-2.34,7.29-3.42,11-.54,1.84-1.1,3.66-1.62,5.51l-1.55,5.54c-.49,1.86-1,3.71-1.46,5.58s-.93,3.73-1.33,5.62l.69.26c.94-1.69,1.82-3.4,2.7-5.11s1.72-3.43,2.58-5.15l2.48-5.19c.83-1.73,1.61-3.48,2.41-5.22,1.62-3.48,3.14-7,4.66-10.5s3-7,4.43-10.58l.82-2L1818,859.2l-3.34-3.83c-1.11-1.28-2.25-2.52-3.38-3.78s-2.29-2.49-3.44-3.73-2.32-2.47-3.48-3.69c-2.34-2.45-4.71-4.86-7.07-7.3s-4.72-4.85-7-7.3l-14-14.72c-4.65-4.92-9.34-9.8-14-14.69l-.14,3,9.83-9.45,9.81-9.47,9.8-9.48,9.77-9.52Z" transform="translate(-32.77 -50.96)"/><path class="cls-53" d="M1707.11,642.11c-35.65,31.56,43.54,173.91,140.52,161Z" transform="translate(-32.77 -50.96)"/><path class="cls-53" d="M1716.31,633.76c34.86-32.44,168.89,60.14,146.69,155.43Z" transform="translate(-32.77 -50.96)"/><path class="cls-54" d="M1707.11,642.11l140.52,161Z" transform="translate(-32.77 -50.96)"/><path class="cls-55" d="M1731.28,617.15c-11.77-26.15-35.94-18-47.8.82Z" transform="translate(-32.77 -50.96)"/><circle class="cls-56" cx="2695.77" cy="1009.7" r="32.05" transform="translate(1234.53 3457.96) rotate(-80.78)"/><path class="cls-57" d="M2777,1043.73c-.39-.86-.77-1.73-1.17-2.57-19.51-41.16-51.79-49.68-80.24-36.19-17.78,8.43-29.86,23.46-31.66,43.59-1.07,12.08,1.55,26,8.86,41.43l.53,1.06C2692.52,1076.69,2729.35,1053.45,2777,1043.73Z" transform="translate(-32.77 -50.96)"/><path class="cls-58" d="M2673.34,1091.05c19.78,40.72,64.7,76.32,92.9,63,27.87-13.2,29.06-69.3,10.78-110.27C2729.35,1053.45,2692.52,1076.69,2673.34,1091.05Z" transform="translate(-32.77 -50.96)"/><path class="cls-3" d="M2715.61,1056s16.68,150.51-42.21,158.79S2619.07,1136.68,2715.61,1056Z" transform="translate(-32.77 -50.96)"/><path class="cls-3" d="M2715.61,1056s105.94,108.21,149.64,67.86S2839.21,1032.34,2715.61,1056Z" transform="translate(-32.77 -50.96)"/><path class="cls-59" d="M2724.59,1061.38s142.33,51.71,164.27-3.57S2825.8,986.6,2724.59,1061.38Z" transform="translate(-32.77 -50.96)"/><path class="cls-59" d="M2709.85,1068.37s-50.09,142.9-106.77,124.89S2587.89,1099.36,2709.85,1068.37Z" transform="translate(-32.77 -50.96)"/><path class="cls-60" d="M2674.21,1205.27a3.48,3.48,0,0,1-1.51.34c-13.41,0-22.49-4.2-27-12.57-13.15-24.59,21.39-76.54,22.87-78.74a3.55,3.55,0,1,1,5.89,4c-9.4,14-31.76,54.15-22.5,71.45,3.14,5.87,10.1,8.84,20.69,8.81a3.55,3.55,0,0,1,1.52,6.76Z" transform="translate(-32.77 -50.96)"/><path class="cls-61" d="M2718.42,1061.88S2768.67,984,2798.18,970c31.81-15.07,80.31-1,104.12,7.66a5.11,5.11,0,0,1-.37,9.71C2847.53,1003.31,2784.59,1030.47,2718.42,1061.88Z" transform="translate(-32.77 -50.96)"/><path class="cls-62" d="M2723.56,1059.45s-92.14-10.45-121.65,3.54c-31.8,15.08-51.63,61.52-60,85.45a5.12,5.12,0,0,0,7.76,5.86C2596.47,1122.3,2657.34,1090.78,2723.56,1059.45Z" transform="translate(-32.77 -50.96)"/><path class="cls-3" d="M2561,1132a3.49,3.49,0,0,1-2.95,0,3.55,3.55,0,0,1-1.81-4.68c1.27-2.89,31.81-70.73,82.58-66.12a3.54,3.54,0,1,1-.65,7.06c-45.74-4.15-75.15,61.27-75.44,61.93A3.51,3.51,0,0,1,2561,1132Z" transform="translate(-32.77 -50.96)"/><ellipse class="cls-63" cx="1422.02" cy="2308.98" rx="65.56" ry="114.94" transform="translate(-1276.98 1763.34) rotate(-47.86)"/><ellipse class="cls-64" cx="1335.36" cy="2230.45" rx="35.92" ry="30.33" transform="translate(-1247.27 1673.24) rotate(-47.86)"/><path class="cls-65" d="M1308,2072.34l-.7,1.6-.84,1.93c-.33.76-.73,1.62-1.1,2.64l-1.26,3.32c-.48,1.21-.85,2.56-1.32,4-.22.71-.47,1.45-.7,2.21s-.41,1.56-.63,2.37-.44,1.65-.67,2.5-.38,1.74-.58,2.64-.39,1.83-.59,2.77l-.48,2.9c-.37,2-.57,4-.83,6.12s-.35,4.28-.49,6.51-.17,4.51-.08,6.82a123.1,123.1,0,0,0,1,14.26,138.47,138.47,0,0,0,2.66,14.52c1.09,4.84,2.52,9.58,4,14.23s3.2,9.13,5,13.39,3.89,8.25,6,11.95c1,1.85,2,3.64,3.07,5.36s2,3.34,3,4.89,2,3,2.92,4.41,1.84,2.71,2.72,3.91c1.75,2.43,3.32,4.52,4.66,6.2s2.39,3,3.14,3.88,1.14,1.34,1.14,1.34l.48-.31-.78-1.59c-.51-1-1.28-2.53-2.25-4.43l-3.52-6.84c-1.37-2.63-2.88-5.61-4.52-8.85-.83-1.61-1.65-3.32-2.51-5.07s-1.75-3.57-2.64-5.44c-1.74-3.76-3.6-7.71-5.42-11.83s-3.71-8.37-5.43-12.78-3.3-8.95-4.6-13.57a135.81,135.81,0,0,1-3.2-14,119.64,119.64,0,0,1-1.62-13.79c-.19-2.25-.15-4.47-.22-6.64,0-1.09,0-2.16.06-3.22s0-2.11.11-3.14c.13-2.07.22-4.08.47-6,.11-1,.21-1.92.31-2.86s.29-1.84.43-2.74.28-1.77.42-2.63.34-1.68.51-2.49l.49-2.36c.18-.77.39-1.5.57-2.21.69-2.88,1.48-5.32,2.1-7.35.29-1,.64-1.91.92-2.69l.71-2,.6-1.65Z" transform="translate(-32.77 -50.96)"/><ellipse class="cls-66" cx="1401.77" cy="2202.25" rx="44.05" ry="10.42" transform="translate(-867.38 3497.93) rotate(-88.58)"/><path class="cls-67" d="M1408.35,2283.47c3.66,3.31,25.81-15.22,49.48-41.39s39.91-50.06,36.25-53.37-25.81,15.23-49.48,41.39S1404.69,2280.16,1408.35,2283.47Z" transform="translate(-32.77 -50.96)"/><path class="cls-68" d="M1471.05,2328.31l9.5-9.78,9.46-9.82,9.46-9.83,9.43-9.84-3,.14c4.9,4.68,9.78,9.36,14.71,14l14.74,14c2.46,2.33,4.89,4.69,7.32,7s4.85,4.73,7.3,7.05c1.23,1.17,2.45,2.34,3.7,3.48s2.47,2.31,3.74,3.43,2.51,2.27,3.78,3.38l3.84,3.33,1.78,1.54,2-.82q5.31-2.18,10.58-4.45c3.5-1.53,7-3,10.48-4.67,1.74-.81,3.49-1.59,5.22-2.42l5.19-2.49c1.71-.87,3.44-1.71,5.15-2.59s3.41-1.77,5.1-2.71l-.26-.69c-1.89.41-3.76.87-5.62,1.34s-3.72,1-5.58,1.47l-5.53,1.56c-1.85.52-3.68,1.09-5.51,1.63-3.68,1.08-7.32,2.26-11,3.43s-7.27,2.41-10.88,3.66l3.8.72-3.7-3.49c-1.23-1.16-2.49-2.28-3.74-3.43s-2.52-2.25-3.78-3.37-2.55-2.23-3.83-3.33c-2.56-2.21-5.17-4.38-7.75-6.57s-5.17-4.36-7.73-6.57l-15.36-13.28c-5.11-4.44-10.26-8.83-15.4-13.24l-1.63-1.4-1.32,1.55-8.86,10.36-8.83,10.4-8.83,10.39-8.78,10.43Z" transform="translate(-32.77 -50.96)"/><path class="cls-69" d="M1174.62,2219.36l1.58-.76,1.9-.91c.75-.35,1.6-.78,2.59-1.18,2-.82,4.3-1.85,7.1-2.82.69-.26,1.4-.53,2.14-.78l2.31-.73,2.42-.76,2.58-.68,2.68-.7,2.81-.59c1.9-.45,3.9-.73,5.94-1.07,1-.19,2.07-.29,3.12-.42s2.12-.28,3.2-.38c2.17-.15,4.37-.41,6.62-.44a117.81,117.81,0,0,1,13.89.23,135.89,135.89,0,0,1,14.21,1.79c4.73.84,9.41,2,14,3.22s9,2.73,13.26,4.13,8.39,2.86,12.31,4.21c2,.71,3.85,1.39,5.67,2.09s3.61,1.33,5.3,2c3.39,1.3,6.5,2.51,9.26,3.61l7.15,2.82c2,.78,3.56,1.39,4.64,1.79l1.65.62.27-.51-1.45-1c-1-.65-2.36-1.59-4.17-2.74s-4-2.51-6.63-4c-1.29-.76-2.69-1.53-4.17-2.32s-3-1.65-4.68-2.47-3.38-1.67-5.17-2.54-3.7-1.66-5.64-2.51c-3.89-1.69-8.08-3.28-12.48-4.73s-9-2.67-13.82-3.67-9.64-1.93-14.56-2.54a143.79,143.79,0,0,0-14.72-1.19,122.23,122.23,0,0,0-14.28.39c-2.32.14-4.57.5-6.79.75s-4.36.68-6.43,1.14-4.09.88-6,1.44l-2.84.77-2.69.86-2.58.84-2.41.92-2.3.86c-.74.3-1.44.62-2.13.92-1.36.61-2.67,1.11-3.82,1.7l-3.19,1.6c-1,.46-1.79.94-2.51,1.35l-1.84,1-1.53.86Z" transform="translate(-32.77 -50.96)"/><ellipse class="cls-70" cx="1315.88" cy="2297.19" rx="44.05" ry="10.42" transform="translate(-551.46 337.58) rotate(-14.06)"/><ellipse class="cls-71" cx="1360.88" cy="2337.9" rx="68.97" ry="10.66" transform="translate(-1318.55 1727.53) rotate(-47.86)"/><path class="cls-72" d="M1444.76,2355l-9.5,9.78-9.46,9.82-9.46,9.83-9.43,9.84-1.41,1.47,1.55,1.49c4.9,4.67,9.78,9.36,14.71,14l14.74,13.95c2.46,2.33,4.88,4.69,7.32,7.05s4.85,4.72,7.3,7c1.23,1.16,2.45,2.34,3.7,3.48s2.47,2.31,3.74,3.43,2.5,2.27,3.78,3.38l3.84,3.32-1.1-3.7q-1.32,5.58-2.55,11.18c-.8,3.75-1.61,7.49-2.32,11.25-.36,1.88-.74,3.76-1.08,5.65l-1,5.66c-.3,1.9-.62,3.79-.9,5.7s-.55,3.8-.77,5.72l.71.19c.77-1.77,1.48-3.56,2.19-5.35s1.37-3.58,2.06-5.38l2-5.41c.65-1.8,1.25-3.62,1.88-5.43,1.27-3.61,2.44-7.26,3.61-10.9s2.28-7.3,3.37-11l.62-2.08-1.71-1.62-3.7-3.48c-1.23-1.16-2.49-2.29-3.74-3.43s-2.52-2.26-3.78-3.38-2.55-2.22-3.83-3.33c-2.57-2.21-5.17-4.37-7.75-6.56s-5.17-4.37-7.74-6.58l-15.35-13.28c-5.11-4.44-10.26-8.83-15.4-13.23l.15,3,8.86-10.36,8.83-10.4,8.83-10.39,8.78-10.43Z" transform="translate(-32.77 -50.96)"/><path class="cls-53" d="M1339.48,2242.28c-32.38,34.91,60.4,168.8,155.66,146.45Z" transform="translate(-32.77 -50.96)"/><path class="cls-53" d="M1347.82,2233.07c31.5-35.7,174,43.26,161.23,140.27Z" transform="translate(-32.77 -50.96)"/><path class="cls-73" d="M1339.48,2242.28l155.66,146.45Z" transform="translate(-32.77 -50.96)"/><path class="cls-74" d="M1361.08,2215.06c-14.28-24.86-37.54-14.37-47.49,5.52Z" transform="translate(-32.77 -50.96)"/></g></svg>